<svg xmlns="http://www.w3.org/2000/svg" width="378.108" height="113.295" viewBox="0 0 378.108 113.295">
  <g id="Grupo_1" data-name="Grupo 1" transform="translate(-138.631 -413)">
    <path id="Caminho_4" data-name="Caminho 4" d="M76.015,137.314c3.712-.787,7.767,1.5,8.731,4.953,1.2,3.529-1.183,7.632-4.973,8.653a7.672,7.672,0,0,1-9.326-4.359,6.839,6.839,0,0,1,2.844-8.159,7.951,7.951,0,0,1,2.724-1.087Zm25.069,22.78a15.1,15.1,0,0,1,8.63-4.154,21.618,21.618,0,0,1,6.47.383c-.027,3.2-.006,6.4-.012,9.6a18.315,18.315,0,0,0-10.2.154,12.245,12.245,0,0,0-4.67,2.872c-.28.224-.212.587-.238.9.02,8.946-.015,17.893.014,26.838a2.883,2.883,0,0,1-.107,1.055c-3.691.08-7.386.016-11.078.028q0-20.457.009-40.917c3.109.013,6.22-.011,9.331.006a1.671,1.671,0,0,1,1.663.916A7.918,7.918,0,0,1,101.084,160.094Zm79.579.037a16.568,16.568,0,0,1,11.436-4.276,19.483,19.483,0,0,1,12.419,3.819,12.629,12.629,0,0,1,4.692,6.608c.976,3.188.889,6.536.877,9.82q0,10.837,0,21.676c-3.722-.006-7.443.023-11.165-.016q0-10.83,0-21.663c0-2.683.136-5.578-1.389-7.967a6.772,6.772,0,0,0-5.189-2.768,12.659,12.659,0,0,0-10.551,3.492,1.278,1.278,0,0,0-.494,1c-.036,1.117.145,2.238.042,3.356-.146,1.518.081,3.037.029,4.56q-.072,4.306-.012,8.613c-.211,3.8.157,7.607-.086,11.4-3.707-.011-7.411,0-11.119,0,0-13.645-.027-27.288.014-40.931,2.867.021,5.739,0,8.6.008a1.664,1.664,0,0,1,1.743,1.049,10.735,10.735,0,0,1,.143,2.223ZM71.933,197.78c0-13.644-.023-27.286.008-40.929q5.54.013,11.078,0c.029,13.642.008,27.285.011,40.924Q77.482,197.779,71.933,197.78Zm-6.88-40.924c-2.927-.006-5.854.008-8.784-.016-.774,0-1.762.031-2.141.792a6.676,6.676,0,0,0-.24,2.474,15.289,15.289,0,0,0-9.391-4.18,23.627,23.627,0,0,0-15.44,4.045,20.561,20.561,0,0,0-7.648,10.046,24.864,24.864,0,0,0-1.22,5.753v2.8a21.067,21.067,0,0,0,7.96,15.444A23.518,23.518,0,0,0,41.3,198.83h2.489a15.535,15.535,0,0,0,10.1-4.343,6.836,6.836,0,0,0,.23,2.5,1.953,1.953,0,0,0,1.865.792c3.02-.007,6.045,0,9.068-.013Q65.056,177.316,65.053,156.856ZM53.547,185.03a12.2,12.2,0,0,1-9.314,3.925,13.481,13.481,0,0,1-10.147-4.1,11.684,11.684,0,0,1-2.567-9.7,10.635,10.635,0,0,1,4.233-7.027,14.183,14.183,0,0,1,7.488-2.555,12.538,12.538,0,0,1,10.614,4.343c.136,4.447,0,8.9.063,13.359-.039.587.134,1.293-.371,1.753Zm110.231-16.468a20.815,20.815,0,0,0-8.641-9.595A23.906,23.906,0,0,0,141.7,155.9a15.5,15.5,0,0,0-9.855,4.219c-.015-7.643,0-15.282-.008-22.925-3.724,0-7.451-.016-11.174.01.02,20.187-.032,40.384.027,60.57q4.625.011,9.255.007a1.708,1.708,0,0,0,1.8-1.064,11.461,11.461,0,0,0,.1-2.25,15.4,15.4,0,0,0,10.213,4.372h2.281a22.8,22.8,0,0,0,16.144-7.559A21.738,21.738,0,0,0,163.779,168.562Zm-13.023,17.221a14.112,14.112,0,0,1-9.318,3.175,12.147,12.147,0,0,1-9.26-3.984,1.207,1.207,0,0,1-.343-.976q0-7.026,0-14.047a12.645,12.645,0,0,1,9.065-4.406,14.269,14.269,0,0,1,9.882,3.222,11.79,11.79,0,0,1-.026,17.016Zm104.9-22.285c-4.736-5.645-12.833-8.493-20.381-7.437a15.078,15.078,0,0,0-8.344,4.052c-.024-7.639,0-15.278-.012-22.92q-5.577-.006-11.147,0,0,30.283,0,60.574c2.93.021,5.867,0,8.8.021.77.011,1.732-.047,2.127-.782a6.717,6.717,0,0,0,.238-2.518,15.544,15.544,0,0,0,10.051,4.345h2.51a22.822,22.822,0,0,0,15.984-7.47,21.216,21.216,0,0,0,5.158-12.767v-2.737a21.4,21.4,0,0,0-4.98-12.365Zm-8.7,21.109c-2.948,3.552-8.15,4.873-12.764,4.183a11.674,11.674,0,0,1-7.2-4.161c-.185-1.719-.018-3.457-.074-5.184.039-3.176-.084-6.363.056-9.534a12.216,12.216,0,0,1,7.179-4.158c5.152-.891,11.141,1.019,13.746,5.472a12,12,0,0,1-.948,13.382Z" transform="translate(256.1 299.959)" fill="#ff385c"/>
    <path id="Caminho_3" data-name="Caminho 3" d="M155.779,97.806a25.408,25.408,0,0,0-2.121-9.488c-.979-2.337-2.115-4.613-3.225-6.9Q137.188,54.4,122.641,27.971c-1.364-2.462-2.7-4.938-4.138-7.362a26.31,26.31,0,0,0-5.2-6.49A20.986,20.986,0,0,0,100.651,9H98.493a20.891,20.891,0,0,0-13,5.276,26.542,26.542,0,0,0-5.022,6.341C79.055,23,77.739,25.437,76.4,27.86q-9.758,17.729-18.94,35.729c-3.648,7.181-7.266,14.374-10.746,21.625a33.735,33.735,0,0,0-3.239,9.442,22.8,22.8,0,0,0,3.573,16.193,25.369,25.369,0,0,0,11.644,9.433,27.827,27.827,0,0,0,11.893,1.97,34.144,34.144,0,0,0,15.293-4.771A65.79,65.79,0,0,0,99.5,106.5a67.521,67.521,0,0,0,12.572,10.367,35.075,35.075,0,0,0,15.153,5.3,27.52,27.52,0,0,0,16.994-3.873,24.645,24.645,0,0,0,9.74-11.2,22.628,22.628,0,0,0,1.823-9.285ZM99.522,95.658c-1.484-1.635-2.791-3.4-4.1-5.159a62.315,62.315,0,0,1-5.834-9.553,29.9,29.9,0,0,1-2.8-8.727,14.156,14.156,0,0,1,.713-7.194,10.777,10.777,0,0,1,4.52-5.22,14.79,14.79,0,0,1,16.307.949,10.871,10.871,0,0,1,3.923,7.156,21.737,21.737,0,0,1-1.785,10.618c-2.547,6.257-6.578,11.866-10.938,17.129Zm48.029,7.668a17.28,17.28,0,0,1-8.566,10.047,19.81,19.81,0,0,1-12.109,1.92c-5.235-.763-9.933-3.363-14-6.432a72.375,72.375,0,0,1-8.265-7.471,88.845,88.845,0,0,0,10.844-15.385c2.559-4.83,4.5-10.064,4.687-15.5a18.565,18.565,0,0,0-13.22-18.8,23.786,23.786,0,0,0-13.53-.4A20.19,20.19,0,0,0,82.834,58a18.087,18.087,0,0,0-3.9,9.823c-.465,5.075.893,10.137,2.949,14.8A77.613,77.613,0,0,0,94.38,101.332a66.305,66.305,0,0,1-7.251,6.744c-4.021,3.185-8.623,5.958-13.835,7.013A20.158,20.158,0,0,1,60.668,113.7a17.286,17.286,0,0,1-9.313-10.659,16.461,16.461,0,0,1,.412-10.273c.991-2.722,2.336-5.315,3.595-7.934q13.1-26.726,27.481-52.881c1.429-2.594,2.836-5.2,4.349-7.752a17.664,17.664,0,0,1,4.7-5.518,13.235,13.235,0,0,1,15.577.274,20.458,20.458,0,0,1,4.929,6.264c2.962,5.207,5.806,10.474,8.651,15.735q12.182,22.565,23.4,45.567a53.19,53.19,0,0,1,3.1,7.259,16.371,16.371,0,0,1,0,9.541Z" transform="translate(95.438 404.001)" fill="#ff385c"/>
  </g>
</svg>
